<mxfile host="app.diagrams.net" modified="2022-12-07T03:20:40.748Z" agent="5.0 (Windows NT 10.0; Win64; x64) AppleWebKit/537.36 (KHTML, like Gecko) Chrome/108.0.0.0 Safari/537.36" etag="U6pI8Pd4TBqGVr1uH3J1" version="20.6.0" type="github" pages="2">
  <diagram name="Page-1" id="13e1069c-82ec-6db2-03f1-153e76fe0fe0">
    <mxGraphModel dx="1039" dy="516" grid="1" gridSize="10" guides="1" tooltips="1" connect="1" arrows="1" fold="1" page="1" pageScale="1" pageWidth="1100" pageHeight="850" background="none" math="0" shadow="0">
      <root>
        <mxCell id="0" />
        <mxCell id="1" parent="0" />
        <mxCell id="i2D-3HKWvg72EdBBp7nu-2" value=":VCU" style="shape=umlLifeline;perimeter=lifelinePerimeter;whiteSpace=wrap;html=1;container=1;collapsible=0;recursiveResize=0;outlineConnect=0;fontSize=18;" vertex="1" parent="1">
          <mxGeometry x="200" y="40" width="120" height="680" as="geometry" />
        </mxCell>
        <mxCell id="i2D-3HKWvg72EdBBp7nu-9" value="enable" style="endArrow=block;dashed=1;endFill=0;endSize=12;html=1;rounded=0;fontSize=18;" edge="1" parent="i2D-3HKWvg72EdBBp7nu-2" target="i2D-3HKWvg72EdBBp7nu-3">
          <mxGeometry width="160" relative="1" as="geometry">
            <mxPoint x="60" y="100" as="sourcePoint" />
            <mxPoint x="220" y="100" as="targetPoint" />
          </mxGeometry>
        </mxCell>
        <mxCell id="i2D-3HKWvg72EdBBp7nu-3" value=":HVIl" style="shape=umlLifeline;perimeter=lifelinePerimeter;whiteSpace=wrap;html=1;container=1;collapsible=0;recursiveResize=0;outlineConnect=0;fontSize=18;" vertex="1" parent="1">
          <mxGeometry x="440" y="40" width="120" height="680" as="geometry" />
        </mxCell>
        <mxCell id="i2D-3HKWvg72EdBBp7nu-12" value="wake up" style="edgeStyle=orthogonalEdgeStyle;html=1;align=left;spacingLeft=2;endArrow=block;rounded=0;entryX=1;entryY=0;fontSize=18;" edge="1" parent="i2D-3HKWvg72EdBBp7nu-3">
          <mxGeometry x="0.0667" y="10" relative="1" as="geometry">
            <mxPoint x="60" y="130" as="sourcePoint" />
            <Array as="points">
              <mxPoint x="90" y="130" />
            </Array>
            <mxPoint x="65" y="150" as="targetPoint" />
            <mxPoint as="offset" />
          </mxGeometry>
        </mxCell>
        <mxCell id="i2D-3HKWvg72EdBBp7nu-4" value=":Object" style="shape=umlLifeline;perimeter=lifelinePerimeter;whiteSpace=wrap;html=1;container=1;collapsible=0;recursiveResize=0;outlineConnect=0;fontSize=18;" vertex="1" parent="1">
          <mxGeometry x="680" y="40" width="120" height="680" as="geometry" />
        </mxCell>
      </root>
    </mxGraphModel>
  </diagram>
  <diagram id="6HGAaZ_OQhGhJa6f5AsY" name="第 2 页">
    <mxGraphModel dx="1185" dy="582" grid="1" gridSize="10" guides="1" tooltips="1" connect="1" arrows="1" fold="1" page="1" pageScale="1" pageWidth="1169" pageHeight="827" math="0" shadow="0">
      <root>
        <mxCell id="0" />
        <mxCell id="1" parent="0" />
        <mxCell id="RXepxtn2kcosxwKhk60O-3" value="&lt;font style=&quot;font-size: 36px;&quot;&gt;HVIL&lt;/font&gt;" style="rounded=0;whiteSpace=wrap;html=1;" vertex="1" parent="1">
          <mxGeometry x="520" y="190" width="120" height="470" as="geometry" />
        </mxCell>
        <mxCell id="RXepxtn2kcosxwKhk60O-4" value="&lt;font style=&quot;font-size: 24px;&quot;&gt;VCU&lt;/font&gt;" style="rounded=0;whiteSpace=wrap;html=1;" vertex="1" parent="1">
          <mxGeometry x="250" y="190" width="120" height="470" as="geometry" />
        </mxCell>
        <mxCell id="RXepxtn2kcosxwKhk60O-5" value="Unit_1" style="rounded=0;whiteSpace=wrap;html=1;" vertex="1" parent="1">
          <mxGeometry x="790" y="190" width="60" height="80" as="geometry" />
        </mxCell>
        <mxCell id="RXepxtn2kcosxwKhk60O-6" value="Unit_3" style="rounded=0;whiteSpace=wrap;html=1;" vertex="1" parent="1">
          <mxGeometry x="790" y="450" width="60" height="80" as="geometry" />
        </mxCell>
        <mxCell id="RXepxtn2kcosxwKhk60O-7" value="Unit_4" style="rounded=0;whiteSpace=wrap;html=1;" vertex="1" parent="1">
          <mxGeometry x="790" y="620" width="60" height="80" as="geometry" />
        </mxCell>
        <mxCell id="RXepxtn2kcosxwKhk60O-8" value="" style="endArrow=classic;html=1;rounded=0;exitX=1;exitY=0.25;exitDx=0;exitDy=0;entryX=0;entryY=0.25;entryDx=0;entryDy=0;" edge="1" parent="1">
          <mxGeometry width="50" height="50" relative="1" as="geometry">
            <mxPoint x="370" y="255.5" as="sourcePoint" />
            <mxPoint x="520" y="255.5" as="targetPoint" />
          </mxGeometry>
        </mxCell>
        <mxCell id="RXepxtn2kcosxwKhk60O-9" value="Unit_2" style="rounded=0;whiteSpace=wrap;html=1;" vertex="1" parent="1">
          <mxGeometry x="790" y="320" width="60" height="80" as="geometry" />
        </mxCell>
        <mxCell id="RXepxtn2kcosxwKhk60O-10" value="" style="endArrow=classic;html=1;rounded=0;fontSize=36;entryX=1;entryY=0.274;entryDx=0;entryDy=0;entryPerimeter=0;exitX=-0.007;exitY=0.275;exitDx=0;exitDy=0;exitPerimeter=0;" edge="1" parent="1" source="RXepxtn2kcosxwKhk60O-3" target="RXepxtn2kcosxwKhk60O-4">
          <mxGeometry width="50" height="50" relative="1" as="geometry">
            <mxPoint x="400" y="360" as="sourcePoint" />
            <mxPoint x="450" y="310" as="targetPoint" />
          </mxGeometry>
        </mxCell>
        <mxCell id="RXepxtn2kcosxwKhk60O-11" value="&lt;font style=&quot;font-size: 18px;&quot;&gt;Enable&lt;/font&gt;" style="text;html=1;align=center;verticalAlign=middle;resizable=0;points=[];autosize=1;strokeColor=none;fillColor=none;fontSize=36;" vertex="1" parent="1">
          <mxGeometry x="405" y="210" width="80" height="60" as="geometry" />
        </mxCell>
        <mxCell id="RXepxtn2kcosxwKhk60O-12" value="&lt;font style=&quot;font-size: 18px;&quot;&gt;Interrupted&lt;/font&gt;" style="text;html=1;align=center;verticalAlign=middle;resizable=0;points=[];autosize=1;strokeColor=none;fillColor=none;fontSize=36;" vertex="1" parent="1">
          <mxGeometry x="390" y="270" width="110" height="60" as="geometry" />
        </mxCell>
        <mxCell id="RXepxtn2kcosxwKhk60O-13" value="" style="endArrow=classic;html=1;rounded=0;exitX=1;exitY=0.25;exitDx=0;exitDy=0;entryX=0;entryY=0.25;entryDx=0;entryDy=0;" edge="1" parent="1">
          <mxGeometry width="50" height="50" relative="1" as="geometry">
            <mxPoint x="640" y="210" as="sourcePoint" />
            <mxPoint x="790" y="210" as="targetPoint" />
          </mxGeometry>
        </mxCell>
        <mxCell id="RXepxtn2kcosxwKhk60O-15" value="" style="endArrow=classic;html=1;rounded=0;fontSize=36;entryX=1;entryY=0.274;entryDx=0;entryDy=0;entryPerimeter=0;exitX=-0.007;exitY=0.275;exitDx=0;exitDy=0;exitPerimeter=0;" edge="1" parent="1">
          <mxGeometry width="50" height="50" relative="1" as="geometry">
            <mxPoint x="790" y="260.47" as="sourcePoint" />
            <mxPoint x="640.8399999999999" y="260" as="targetPoint" />
          </mxGeometry>
        </mxCell>
        <mxCell id="RXepxtn2kcosxwKhk60O-16" value="" style="endArrow=classic;html=1;rounded=0;exitX=1;exitY=0.25;exitDx=0;exitDy=0;entryX=0;entryY=0.25;entryDx=0;entryDy=0;" edge="1" parent="1">
          <mxGeometry width="50" height="50" relative="1" as="geometry">
            <mxPoint x="641" y="336" as="sourcePoint" />
            <mxPoint x="791" y="336" as="targetPoint" />
          </mxGeometry>
        </mxCell>
        <mxCell id="RXepxtn2kcosxwKhk60O-17" value="" style="endArrow=classic;html=1;rounded=0;fontSize=36;entryX=1;entryY=0.274;entryDx=0;entryDy=0;entryPerimeter=0;exitX=-0.007;exitY=0.275;exitDx=0;exitDy=0;exitPerimeter=0;" edge="1" parent="1">
          <mxGeometry width="50" height="50" relative="1" as="geometry">
            <mxPoint x="791" y="386.4699999999999" as="sourcePoint" />
            <mxPoint x="641.8399999999999" y="386" as="targetPoint" />
          </mxGeometry>
        </mxCell>
        <mxCell id="RXepxtn2kcosxwKhk60O-18" value="" style="endArrow=classic;html=1;rounded=0;exitX=1;exitY=0.25;exitDx=0;exitDy=0;entryX=0;entryY=0.25;entryDx=0;entryDy=0;" edge="1" parent="1">
          <mxGeometry width="50" height="50" relative="1" as="geometry">
            <mxPoint x="641" y="464" as="sourcePoint" />
            <mxPoint x="791" y="464" as="targetPoint" />
          </mxGeometry>
        </mxCell>
        <mxCell id="RXepxtn2kcosxwKhk60O-19" value="" style="endArrow=classic;html=1;rounded=0;fontSize=36;entryX=1;entryY=0.274;entryDx=0;entryDy=0;entryPerimeter=0;exitX=-0.007;exitY=0.275;exitDx=0;exitDy=0;exitPerimeter=0;" edge="1" parent="1">
          <mxGeometry width="50" height="50" relative="1" as="geometry">
            <mxPoint x="791" y="514.4699999999999" as="sourcePoint" />
            <mxPoint x="641.8399999999999" y="514" as="targetPoint" />
          </mxGeometry>
        </mxCell>
        <mxCell id="RXepxtn2kcosxwKhk60O-20" value="" style="endArrow=classic;html=1;rounded=0;exitX=1;exitY=0.25;exitDx=0;exitDy=0;entryX=0;entryY=0.25;entryDx=0;entryDy=0;" edge="1" parent="1">
          <mxGeometry width="50" height="50" relative="1" as="geometry">
            <mxPoint x="640" y="594.6600000000001" as="sourcePoint" />
            <mxPoint x="790" y="594.6600000000001" as="targetPoint" />
          </mxGeometry>
        </mxCell>
        <mxCell id="RXepxtn2kcosxwKhk60O-21" value="" style="endArrow=classic;html=1;rounded=0;fontSize=36;entryX=1;entryY=0.274;entryDx=0;entryDy=0;entryPerimeter=0;exitX=-0.007;exitY=0.275;exitDx=0;exitDy=0;exitPerimeter=0;" edge="1" parent="1">
          <mxGeometry width="50" height="50" relative="1" as="geometry">
            <mxPoint x="790" y="645.1299999999999" as="sourcePoint" />
            <mxPoint x="640.8399999999999" y="644.6600000000001" as="targetPoint" />
          </mxGeometry>
        </mxCell>
        <mxCell id="RXepxtn2kcosxwKhk60O-22" value="&lt;font style=&quot;font-size: 18px;&quot;&gt;A output&lt;/font&gt;" style="text;html=1;align=center;verticalAlign=middle;resizable=0;points=[];autosize=1;strokeColor=none;fillColor=none;fontSize=36;" vertex="1" parent="1">
          <mxGeometry x="675" y="160" width="90" height="60" as="geometry" />
        </mxCell>
        <mxCell id="RXepxtn2kcosxwKhk60O-23" value="&lt;font style=&quot;font-size: 18px;&quot;&gt;A detector&lt;/font&gt;" style="text;html=1;align=center;verticalAlign=middle;resizable=0;points=[];autosize=1;strokeColor=none;fillColor=none;fontSize=36;" vertex="1" parent="1">
          <mxGeometry x="670" y="210" width="100" height="60" as="geometry" />
        </mxCell>
        <mxCell id="RXepxtn2kcosxwKhk60O-24" value="&lt;font style=&quot;font-size: 18px;&quot;&gt;B detector&lt;/font&gt;" style="text;html=1;align=center;verticalAlign=middle;resizable=0;points=[];autosize=1;strokeColor=none;fillColor=none;fontSize=36;" vertex="1" parent="1">
          <mxGeometry x="665" y="340" width="110" height="60" as="geometry" />
        </mxCell>
        <mxCell id="RXepxtn2kcosxwKhk60O-25" value="&lt;font style=&quot;font-size: 18px;&quot;&gt;C detector&lt;/font&gt;" style="text;html=1;align=center;verticalAlign=middle;resizable=0;points=[];autosize=1;strokeColor=none;fillColor=none;fontSize=36;" vertex="1" parent="1">
          <mxGeometry x="670" y="470" width="110" height="60" as="geometry" />
        </mxCell>
        <mxCell id="RXepxtn2kcosxwKhk60O-26" value="&lt;font style=&quot;font-size: 18px;&quot;&gt;D detector&lt;/font&gt;" style="text;html=1;align=center;verticalAlign=middle;resizable=0;points=[];autosize=1;strokeColor=none;fillColor=none;fontSize=36;" vertex="1" parent="1">
          <mxGeometry x="670" y="600" width="110" height="60" as="geometry" />
        </mxCell>
        <mxCell id="RXepxtn2kcosxwKhk60O-27" value="&lt;font style=&quot;font-size: 18px;&quot;&gt;B output&lt;/font&gt;" style="text;html=1;align=center;verticalAlign=middle;resizable=0;points=[];autosize=1;strokeColor=none;fillColor=none;fontSize=36;" vertex="1" parent="1">
          <mxGeometry x="670" y="290" width="90" height="60" as="geometry" />
        </mxCell>
        <mxCell id="RXepxtn2kcosxwKhk60O-28" value="&lt;font style=&quot;font-size: 18px;&quot;&gt;C output&lt;/font&gt;" style="text;html=1;align=center;verticalAlign=middle;resizable=0;points=[];autosize=1;strokeColor=none;fillColor=none;fontSize=36;" vertex="1" parent="1">
          <mxGeometry x="670" y="410" width="90" height="60" as="geometry" />
        </mxCell>
        <mxCell id="RXepxtn2kcosxwKhk60O-29" value="&lt;font style=&quot;font-size: 18px;&quot;&gt;D output&lt;/font&gt;" style="text;html=1;align=center;verticalAlign=middle;resizable=0;points=[];autosize=1;strokeColor=none;fillColor=none;fontSize=36;" vertex="1" parent="1">
          <mxGeometry x="670" y="540" width="90" height="60" as="geometry" />
        </mxCell>
        <mxCell id="RXepxtn2kcosxwKhk60O-30" value="" style="shape=flexArrow;endArrow=classic;startArrow=classic;html=1;rounded=0;fontSize=18;exitX=1.012;exitY=0.467;exitDx=0;exitDy=0;exitPerimeter=0;entryX=-0.005;entryY=0.468;entryDx=0;entryDy=0;entryPerimeter=0;" edge="1" parent="1" source="RXepxtn2kcosxwKhk60O-4" target="RXepxtn2kcosxwKhk60O-3">
          <mxGeometry width="100" height="100" relative="1" as="geometry">
            <mxPoint x="400" y="510" as="sourcePoint" />
            <mxPoint x="500" y="410" as="targetPoint" />
          </mxGeometry>
        </mxCell>
        <mxCell id="RXepxtn2kcosxwKhk60O-31" value="&lt;font style=&quot;font-size: 18px;&quot;&gt;CANBus&lt;/font&gt;" style="text;html=1;align=center;verticalAlign=middle;resizable=0;points=[];autosize=1;strokeColor=none;fillColor=none;fontSize=36;" vertex="1" parent="1">
          <mxGeometry x="400" y="354" width="90" height="60" as="geometry" />
        </mxCell>
      </root>
    </mxGraphModel>
  </diagram>
</mxfile>
